<?xml version="1.0" encoding="utf-8"?>
<!-- Generator: Adobe Illustrator 16.0.0, SVG Export Plug-In . SVG Version: 6.00 Build 0)  -->
<!DOCTYPE svg PUBLIC "-//W3C//DTD SVG 1.1//EN" "http://www.w3.org/Graphics/SVG/1.1/DTD/svg11.dtd">
<svg version="1.1" id="Capa_1" xmlns="http://www.w3.org/2000/svg" xmlns:xlink="http://www.w3.org/1999/xlink" x="0px" y="0px"
	 width="25.871px" height="14.91px" viewBox="0 0 25.871 14.91" enable-background="new 0 0 25.871 14.91" xml:space="preserve">
<g>
	<g>
		
			<linearGradient id="SVGID_1_" gradientUnits="userSpaceOnUse" x1="179.4258" y1="-334" x2="179.4258" y2="-320.6552" gradientTransform="matrix(1 0 0 1 -166.4912 334)">
			<stop  offset="0" style="stop-color:#5A5B5F"/>
			<stop  offset="0.0326" style="stop-color:#57585C"/>
			<stop  offset="0.456" style="stop-color:#333234"/>
			<stop  offset="0.7932" style="stop-color:#1C1B1C"/>
			<stop  offset="1" style="stop-color:#141213"/>
		</linearGradient>
		<path fill="url(#SVGID_1_)" d="M25.87,4.988c0,6.586-7.834,9.922-12.936,9.922S-0.001,11.574-0.001,4.988
			C-0.001-0.002-0.069,0,12.935,0S25.87-0.002,25.87,4.988z"/>
		<linearGradient id="SVGID_2_" gradientUnits="userSpaceOnUse" x1="12.9346" y1="0" x2="12.9346" y2="14.9102">
			<stop  offset="0" style="stop-color:#5A5B5F"/>
			<stop  offset="0.0197" style="stop-color:#56575A"/>
			<stop  offset="0.1524" style="stop-color:#3E3E40"/>
			<stop  offset="0.2989" style="stop-color:#2B2A2C"/>
			<stop  offset="0.4647" style="stop-color:#1E1C1E"/>
			<stop  offset="0.6657" style="stop-color:#161416"/>
			<stop  offset="1" style="stop-color:#141213"/>
		</linearGradient>
		<path fill="url(#SVGID_2_)" d="M12.94,1.627c5.861,0,9.398,0,10.736,0.506c0.355,0.135,0.379,0.217,0.432,0.395
			c0.135,0.469,0.135,1.313,0.135,2.383v0.078c0,3.002-2.068,4.951-3.801,6.059c-2.162,1.379-5.037,2.236-7.508,2.236
			c-2.469,0-5.346-0.857-7.506-2.236C3.692,9.939,1.626,7.99,1.626,4.988V4.912c0-1.07,0-1.916,0.137-2.385
			C1.815,2.35,1.839,2.27,2.194,2.133c1.336-0.506,4.875-0.506,10.74-0.506H12.94 M12.94,0c-0.002,0-0.004,0-0.006,0
			C-0.069,0-0.001-0.002-0.001,4.988c0,6.586,7.834,9.922,12.936,9.922S25.87,11.574,25.87,4.988C25.87,0,25.938,0,12.94,0L12.94,0z
			"/>
	</g>
	<g>
		<path fill="#FFFFFF" d="M6.019,5.641C5.96,5.553,5.884,5.479,5.798,5.418c-0.082-0.057-0.17-0.105-0.264-0.145
			C5.376,5.205,5.196,5.143,5.005,5.09C4.815,5.037,4.591,4.98,4.333,4.92C4.128,4.871,3.979,4.811,3.892,4.74
			C3.813,4.678,3.772,4.602,3.772,4.51c0-0.174,0.066-0.406,0.631-0.406c0.238,0,0.416,0.045,0.529,0.133
			c0.111,0.088,0.174,0.219,0.193,0.402l0.008,0.074h0.953L6.085,4.629c-0.01-0.207-0.055-0.4-0.135-0.572
			C5.868,3.885,5.753,3.734,5.604,3.611C5.46,3.492,5.282,3.398,5.081,3.332C4.88,3.268,4.651,3.234,4.403,3.234
			c-0.256,0-0.482,0.033-0.674,0.098c-0.191,0.066-0.355,0.156-0.488,0.27S3.007,3.854,2.942,4.008S2.845,4.33,2.845,4.504
			c0,0.229,0.039,0.422,0.111,0.572C3.03,5.23,3.147,5.361,3.302,5.467c0.15,0.104,0.346,0.189,0.576,0.26
			C4.103,5.793,4.37,5.859,4.677,5.924C4.8,5.949,4.899,5.98,4.976,6.012c0.07,0.031,0.127,0.064,0.166,0.102
			C5.177,6.148,5.2,6.186,5.212,6.227c0.014,0.045,0.021,0.098,0.021,0.154c0,0.139-0.057,0.244-0.17,0.326
			C4.94,6.793,4.753,6.836,4.507,6.836c-0.227,0-0.416-0.055-0.564-0.162C3.8,6.57,3.729,6.432,3.726,6.252l-0.002-0.08H2.751
			l0.004,0.086C2.772,6.723,2.938,7.08,3.251,7.32c0.307,0.234,0.766,0.354,1.365,0.354c0.211,0,0.416-0.027,0.607-0.084
			c0.193-0.057,0.363-0.141,0.508-0.248c0.145-0.109,0.264-0.246,0.348-0.404C6.167,6.777,6.21,6.592,6.21,6.387
			c0-0.168-0.016-0.313-0.051-0.432C6.124,5.834,6.077,5.729,6.019,5.641z"/>
		<polygon fill="#FFFFFF" points="7.333,5.793 9.292,5.793 9.292,4.924 7.333,4.924 7.333,4.23 9.462,4.23 9.462,3.367 6.354,3.367 
			6.354,7.535 9.56,7.535 9.56,6.662 7.333,6.662 		"/>
		<polygon fill="#FFFFFF" points="10.669,3.367 9.667,3.367 9.667,7.535 12.651,7.535 12.651,6.643 10.669,6.643 		"/>
		<polygon fill="#FFFFFF" points="13.769,5.793 15.729,5.793 15.729,4.924 13.769,4.924 13.769,4.23 15.899,4.23 15.899,3.367 
			12.79,3.367 12.79,7.535 15.993,7.535 15.993,6.662 13.769,6.662 		"/>
		<path fill="#FFFFFF" d="M18.796,6.061c-0.053,0.236-0.148,0.418-0.287,0.539c-0.133,0.121-0.316,0.182-0.545,0.182
			c-0.299,0-0.518-0.109-0.664-0.334c-0.154-0.232-0.232-0.568-0.232-0.996c0-0.42,0.08-0.754,0.234-0.99
			c0.152-0.229,0.381-0.34,0.705-0.34c0.184,0,0.344,0.057,0.492,0.172c0.146,0.115,0.246,0.281,0.297,0.49l0.016,0.063h0.992
			l-0.01-0.09c-0.021-0.209-0.078-0.41-0.166-0.594c-0.092-0.188-0.215-0.35-0.369-0.488c-0.154-0.137-0.34-0.244-0.551-0.322
			c-0.213-0.078-0.451-0.117-0.707-0.117c-0.297,0-0.568,0.053-0.809,0.158s-0.451,0.258-0.617,0.453
			c-0.168,0.193-0.297,0.436-0.387,0.715C16.101,4.84,16.054,5.156,16.054,5.5c0,0.354,0.051,0.668,0.148,0.936
			c0.098,0.27,0.234,0.498,0.406,0.682c0.17,0.186,0.381,0.328,0.617,0.418c0.236,0.092,0.494,0.139,0.762,0.139
			c0.242,0,0.467-0.037,0.668-0.113c0.205-0.076,0.383-0.184,0.537-0.324c0.152-0.139,0.281-0.307,0.383-0.498
			c0.1-0.191,0.174-0.408,0.219-0.645l0.018-0.096H18.81L18.796,6.061z"/>
		<polygon fill="#FFFFFF" points="19.698,3.367 19.698,4.23 20.905,4.23 20.905,7.535 21.907,7.535 21.907,4.23 23.118,4.23 
			23.118,3.367 		"/>
	</g>
</g>
</svg>
