<?xml version="1.0" encoding="utf-8"?>
<!-- Generator: Adobe Illustrator 16.0.0, SVG Export Plug-In . SVG Version: 6.00 Build 0)  -->
<!DOCTYPE svg PUBLIC "-//W3C//DTD SVG 1.1//EN" "http://www.w3.org/Graphics/SVG/1.1/DTD/svg11.dtd">
<svg version="1.1" id="Capa_1" xmlns="http://www.w3.org/2000/svg" xmlns:xlink="http://www.w3.org/1999/xlink" x="0px" y="0px"
	 width="25.872px" height="14.91px" viewBox="0 0 25.872 14.91" enable-background="new 0 0 25.872 14.91" xml:space="preserve">
<g>
	<g>
		
			<linearGradient id="SVGID_1_" gradientUnits="userSpaceOnUse" x1="179.4268" y1="-334" x2="179.4268" y2="-320.6552" gradientTransform="matrix(1 0 0 1 -166.4912 334)">
			<stop  offset="0" style="stop-color:#5A5B5F"/>
			<stop  offset="0.0326" style="stop-color:#57585C"/>
			<stop  offset="0.456" style="stop-color:#333234"/>
			<stop  offset="0.7932" style="stop-color:#1C1B1C"/>
			<stop  offset="1" style="stop-color:#141213"/>
		</linearGradient>
		<path fill="url(#SVGID_1_)" d="M25.872,4.988c0,6.586-7.834,9.922-12.937,9.922C7.832,14.91,0,11.574,0,4.988
			C0-0.002-0.068,0,12.936,0C25.94,0,25.872-0.002,25.872,4.988z"/>
		<linearGradient id="SVGID_2_" gradientUnits="userSpaceOnUse" x1="12.9365" y1="0" x2="12.9365" y2="14.9102">
			<stop  offset="0" style="stop-color:#5A5B5F"/>
			<stop  offset="0.0197" style="stop-color:#56575A"/>
			<stop  offset="0.1524" style="stop-color:#3E3E40"/>
			<stop  offset="0.2989" style="stop-color:#2B2A2C"/>
			<stop  offset="0.4647" style="stop-color:#1E1C1E"/>
			<stop  offset="0.6657" style="stop-color:#161416"/>
			<stop  offset="1" style="stop-color:#141213"/>
		</linearGradient>
		<path fill="url(#SVGID_2_)" d="M12.941,1.627c5.862,0,9.399,0,10.737,0.506c0.355,0.135,0.379,0.217,0.43,0.395
			c0.137,0.469,0.137,1.313,0.137,2.383v0.078c0,3.002-2.068,4.951-3.803,6.059c-2.16,1.379-5.035,2.236-7.507,2.236
			c-2.469,0-5.346-0.857-7.506-2.236C3.695,9.939,1.627,7.99,1.627,4.988V4.912c0-1.07,0-1.916,0.137-2.385
			c0.053-0.178,0.074-0.26,0.432-0.395c1.336-0.506,4.875-0.506,10.74-0.506H12.941 M12.941,0c-0.002,0-0.002,0-0.006,0
			C-0.068,0,0-0.002,0,4.988c0,6.586,7.832,9.922,12.936,9.922c5.103,0,12.937-3.336,12.937-9.922C25.872,0,25.94,0,12.941,0
			L12.941,0z"/>
	</g>
	<g>
		<path fill="#FFFFFF" d="M7.037,6.033C6.969,5.93,6.883,5.844,6.783,5.773C6.688,5.707,6.582,5.65,6.477,5.607
			c-0.186-0.08-0.393-0.152-0.615-0.215C5.639,5.332,5.375,5.266,5.078,5.193C4.84,5.139,4.666,5.066,4.563,4.984
			C4.471,4.91,4.424,4.822,4.424,4.715c0-0.205,0.078-0.477,0.738-0.477c0.277,0,0.484,0.053,0.617,0.156
			C5.91,4.496,5.982,4.65,6.004,4.865l0.008,0.082h1.105L7.113,4.852c-0.01-0.24-0.063-0.463-0.156-0.662
			c-0.094-0.201-0.229-0.375-0.4-0.518c-0.17-0.139-0.373-0.25-0.609-0.324C5.715,3.271,5.449,3.234,5.162,3.234
			c-0.299,0-0.563,0.039-0.785,0.115c-0.223,0.074-0.412,0.18-0.566,0.309C3.656,3.793,3.537,3.951,3.463,4.133
			C3.389,4.311,3.352,4.506,3.352,4.709c0,0.264,0.043,0.488,0.129,0.664s0.221,0.328,0.402,0.453
			c0.174,0.119,0.398,0.219,0.666,0.299c0.264,0.078,0.576,0.156,0.93,0.23c0.143,0.031,0.262,0.066,0.35,0.104
			C5.91,6.494,5.977,6.533,6.021,6.578c0.043,0.041,0.07,0.084,0.086,0.131c0.014,0.055,0.023,0.117,0.023,0.182
			c0,0.162-0.066,0.287-0.201,0.381C5.789,7.373,5.568,7.424,5.281,7.424c-0.264,0-0.484-0.064-0.658-0.189
			C4.455,7.113,4.373,6.951,4.369,6.74L4.367,6.652H3.242l0.004,0.096c0.02,0.539,0.215,0.955,0.576,1.232
			c0.355,0.273,0.889,0.412,1.586,0.412c0.246,0,0.482-0.033,0.705-0.098C6.34,8.229,6.537,8.131,6.705,8.006
			C6.873,7.879,7.01,7.721,7.109,7.537c0.1-0.186,0.152-0.4,0.152-0.641c0-0.193-0.021-0.363-0.061-0.5
			C7.16,6.256,7.105,6.133,7.037,6.033z"/>
		<polygon fill="#FFFFFF" points="11.057,3.389 7.084,3.389 7.084,4.385 8.488,4.385 8.488,8.23 9.646,8.23 9.646,4.385 
			11.057,4.385 		"/>
		<path fill="#FFFFFF" d="M11.533,3.389L9.805,8.23h1.227l0.33-0.961h1.586l0.295,0.961h1.257l-1.706-4.842H11.533z M12.609,6.287
			h-0.936l0.475-1.471L12.609,6.287z"/>
		<path fill="#FFFFFF" d="M18.401,5.545c0.127-0.207,0.193-0.449,0.193-0.717c0-0.203-0.037-0.396-0.109-0.572
			c-0.072-0.178-0.178-0.332-0.313-0.461c-0.135-0.125-0.297-0.227-0.482-0.299c-0.186-0.07-0.395-0.107-0.619-0.107h-2.457V8.23
			h1.131V6.406h0.947c0.318,0,0.455,0.064,0.514,0.119c0.084,0.078,0.127,0.217,0.127,0.414V8.23h1.135V6.82
			c0-0.291-0.047-0.508-0.143-0.66c-0.068-0.104-0.164-0.189-0.289-0.256C18.187,5.816,18.31,5.697,18.401,5.545z M15.745,4.379
			h1.164c0.217,0,0.369,0.049,0.457,0.145c0.09,0.102,0.135,0.229,0.135,0.389c0,0.154-0.045,0.279-0.139,0.379
			c-0.088,0.098-0.252,0.146-0.488,0.146h-1.129V4.379z"/>
		<polygon fill="#FFFFFF" points="18.657,3.389 18.657,4.385 20.062,4.385 20.062,8.23 21.22,8.23 21.22,4.385 22.63,4.385 
			22.63,3.389 		"/>
	</g>
</g>
</svg>
